<svg xmlns="http://www.w3.org/2000/svg" viewBox="0 0 100 100">
  <defs>
    <style>
      .pink { fill: #D67676; opacity: 0.35; } 
      .teal { fill: #97D2D2; opacity: 0.35; }
      .blue { fill: #5C8AB4; opacity: 0.35; }
      .outline { fill: none; stroke: #D67676; stroke-width: 1.2; }
    </style>
  </defs>
  <!-- Three Overlapping Circles -->
  <circle cx="38" cy="38" r="26" class="pink" />
  <circle cx="62" cy="38" r="26" class="teal" />
  <circle cx="50" cy="58" r="26" class="blue" />
  
  <!-- Stylized Clover Outline (Organic Path) -->
  <path d="M38 12 A26 26 0 0 1 50 34 A26 26 0 0 1 62 12 A26 26 0 0 1 83 45 A26 26 0 0 1 58 65 A26 26 0 0 1 50 84 A26 26 0 0 1 42 65 A26 26 0 0 1 17 45 A26 26 0 0 1 38 12" class="outline" stroke-linejoin="round" />
</svg>
